<?xml version="1.0" standalone="no"?>
<!DOCTYPE svg PUBLIC "-//W3C//DTD SVG 20010904//EN"
 "http://www.w3.org/TR/2001/REC-SVG-20010904/DTD/svg10.dtd">
<svg version="1.0" xmlns="http://www.w3.org/2000/svg" viewBox="0 0 1995.000000 312.000000"
 preserveAspectRatio="xMidYMid meet">
<g transform="translate(0.000000,312.000000) scale(0.100000,-0.100000)" stroke="none">
<path d="M4870 3105 c-8 -11 -116 -196 -322 -555 -75 -129 -305 -530 -513
-890 -208 -360 -385 -668 -395 -685 -9 -16 -76 -132 -148 -257 -72 -125 -128
-229 -124 -231 4 -2 94 -3 200 -3 130 1 195 5 200 12 4 6 50 80 102 163 52 84
115 184 140 224 l46 72 768 0 c501 0 773 -3 782 -10 7 -5 29 -40 48 -76 l36
-66 -725 1 c-399 1 -725 0 -725 -1 0 -1 43 -73 95 -160 l95 -158 724 0 c398 0
726 -2 729 -5 4 -5 83 -147 160 -290 23 -41 55 -100 72 -130 l31 -55 197 0
c108 0 197 3 197 6 0 5 -81 151 -113 204 -27 43 -55 93 -82 140 -15 28 -97
172 -183 320 -85 149 -164 286 -175 305 -11 19 -45 80 -77 135 -56 97 -76 133
-121 213 -12 20 -25 42 -29 47 -4 6 -21 35 -37 65 -17 30 -96 169 -176 308
l-145 253 -50 -88 c-27 -48 -68 -123 -92 -167 l-43 -79 35 -66 c20 -36 68
-124 107 -195 39 -72 71 -131 71 -132 0 -2 -265 -3 -590 -3 -324 1 -590 4
-590 9 0 5 35 71 78 147 44 76 90 158 104 183 44 77 122 214 135 235 7 11 16
27 20 35 4 8 79 141 166 295 88 154 171 300 185 325 13 25 62 110 107 190 46
80 92 161 103 180 11 19 45 80 76 134 31 54 54 101 51 104 -10 10 -397 7 -405
-3z"/>
<path d="M11217 2958 l-157 -157 135 -3 136 -3 148 150 c81 83 150 155 154
161 4 8 -33 11 -126 10 l-133 -1 -157 -157z"/>
<path d="M12685 3084 c-57 -61 -300 -318 -340 -359 -22 -23 -103 -108 -180
-190 -77 -81 -153 -162 -170 -180 -16 -17 -104 -110 -195 -205 -91 -96 -202
-213 -248 -260 l-82 -85 172 -168 c95 -93 225 -218 288 -280 349 -336 620
-598 749 -724 l146 -142 273 -1 273 0 -144 143 c-780 766 -1177 1162 -1177
1171 0 6 31 43 68 82 37 39 112 120 167 180 55 60 114 123 130 140 17 18 48
52 70 75 96 105 304 330 364 394 36 39 113 122 171 185 58 63 131 142 163 176
32 35 58 66 58 71 -1 4 -119 8 -264 9 l-263 0 -29 -32z"/>
<path d="M14177 2958 l158 -158 317 0 318 0 0 -1155 0 -1155 190 0 190 0 0
1155 0 1155 33 0 c17 1 345 1 727 1 l695 -1 -161 158 -160 157 -1233 1 -1232
0 158 -158z"/>
<path d="M17674 3105 c2 -6 147 -210 322 -454 176 -243 334 -465 353 -492 18
-27 36 -49 41 -49 12 0 195 239 195 255 0 17 -37 72 -320 478 l-191 272 -202
0 c-144 1 -201 -2 -198 -10z"/>
<path d="M19360 3114 c0 -3 93 -155 146 -239 l44 -70 135 -5 c74 -3 164 -3
200 -2 l65 4 -44 61 c-23 34 -71 103 -106 152 -34 50 -64 92 -67 95 -5 5 -373
9 -373 4z"/>
<path d="M285 2950 l160 -160 152 0 c84 0 153 3 153 7 0 4 -68 76 -152 160
l-152 153 -161 0 -160 0 160 -160z"/>
<path d="M1995 2305 c0 -528 -3 -806 -10 -808 -5 -1 -368 -3 -805 -2 l-795 1
-3 603 -2 603 -25 20 c-14 11 -31 25 -38 31 -6 7 -59 50 -117 97 -58 46 -114
93 -125 103 -11 10 -32 28 -48 39 l-27 19 0 -1279 0 -1280 48 -40 c26 -22 110
-92 187 -156 l140 -116 3 520 2 520 807 -2 807 -3 0 -347 0 -348 188 0 c172 0
188 1 188 18 1 23 1 2572 1 2595 -1 16 -17 17 -189 17 l-188 0 1 -805z"/>
<path d="M8220 3100 c-14 -4 -69 -22 -124 -40 -310 -99 -560 -284 -718 -530
-172 -267 -253 -576 -252 -960 1 -226 24 -354 99 -555 158 -424 456 -740 845
-900 73 -30 226 -71 305 -83 65 -9 289 -9 340 0 22 4 56 11 75 14 53 9 228 74
290 107 233 125 385 269 557 527 58 87 90 147 97 182 4 26 -1 33 -212 266
l-76 83 -27 -90 c-100 -326 -354 -594 -672 -707 -40 -15 -155 -28 -242 -28
-93 0 -193 16 -278 44 -239 80 -432 262 -569 535 -114 226 -141 359 -142 675
0 185 9 282 39 434 87 437 327 800 664 1003 53 32 53 40 1 23z"/>
<path d="M8890 3093 c-351 -54 -620 -183 -841 -403 -173 -171 -335 -502 -374
-760 -2 -19 -9 -62 -14 -95 -10 -63 -7 -342 4 -410 41 -249 137 -459 281 -615
155 -167 378 -274 596 -285 64 -4 89 0 160 24 65 22 79 30 63 36 -114 43 -285
140 -350 198 -212 191 -313 375 -370 676 -23 122 -23 371 0 481 28 135 85 272
162 387 49 73 162 193 236 248 81 62 222 129 327 156 107 28 316 34 433 13
218 -39 430 -173 567 -356 92 -123 185 -305 214 -417 l12 -44 79 75 c44 41
109 101 144 134 l63 60 -38 84 c-110 244 -242 410 -444 561 -172 128 -333 199
-555 245 -35 7 -319 13 -355 7z"/>
<path d="M2500 1747 l0 -1264 138 -130 c75 -71 160 -151 187 -176 l50 -46 3
1282 2 1282 -33 30 c-18 17 -44 39 -58 50 -93 76 -135 110 -139 115 -6 6 -107
89 -132 109 -17 13 -18 -48 -18 -1252z"/>
<path d="M13348 3001 c-1 -5 -43 -53 -93 -106 -49 -54 -98 -107 -108 -119 -10
-12 -55 -61 -100 -110 -45 -49 -89 -97 -97 -106 -22 -25 -161 -179 -190 -210
-41 -44 -184 -201 -202 -223 -21 -24 -176 -192 -240 -261 -26 -28 -48 -56 -48
-62 0 -13 227 -234 240 -234 5 0 13 6 17 14 4 7 33 42 63 76 99 113 169 194
230 265 24 28 46 52 49 55 3 3 46 52 96 110 49 58 92 107 95 110 3 3 48 55 99
115 52 61 99 115 105 120 6 6 32 35 58 66 l47 55 0 227 c-1 196 -7 255 -21
218z"/>
<path d="M5125 2509 c-148 -259 -282 -492 -297 -517 -14 -26 -96 -168 -181
-317 -86 -148 -154 -271 -152 -273 5 -5 375 -5 380 -1 5 6 205 342 205 345 0
2 27 46 60 99 33 53 60 98 60 99 0 3 157 267 187 315 17 26 8 37 124 -157 9
-15 157 -261 329 -547 172 -286 322 -536 334 -556 94 -162 522 -868 526 -868
7 0 184 268 188 283 1 7 -66 129 -149 271 -84 143 -165 285 -182 315 -16 30
-33 60 -37 65 -6 8 -452 773 -530 910 -10 17 -88 152 -174 300 -87 149 -214
368 -283 488 -69 119 -128 217 -132 217 -3 0 -127 -212 -276 -471z"/>
<path d="M17454 2856 c-49 -69 -90 -132 -92 -140 -2 -7 57 -96 129 -197 73
-101 147 -204 164 -229 17 -25 141 -198 274 -384 134 -187 245 -345 247 -351
3 -7 -10 -32 -28 -56 -19 -24 -91 -123 -161 -219 -69 -96 -239 -329 -377 -518
-137 -189 -250 -347 -250 -352 0 -5 41 -70 91 -144 l92 -135 201 277 c110 153
208 287 216 299 20 30 182 252 245 338 60 81 466 642 504 697 14 20 178 246
365 503 l338 467 -86 129 c-48 71 -90 130 -94 132 -4 3 -62 -68 -128 -157
-252 -334 -546 -722 -562 -741 -9 -11 -46 -59 -82 -107 -35 -49 -67 -88 -70
-88 -3 0 -54 66 -115 146 -98 129 -122 161 -153 199 -4 6 -72 96 -152 200 -79
105 -147 192 -150 195 -3 3 -59 76 -125 163 -66 87 -127 168 -136 179 -15 19
-19 16 -105 -106z"/>
<path d="M11720 2919 c-30 -28 -80 -74 -110 -103 -30 -28 -86 -81 -125 -117
l-70 -65 0 -342 c0 -188 1 -342 3 -342 1 0 83 82 182 183 l180 182 0 328 c0
180 -1 327 -2 327 -2 0 -28 -23 -58 -51z"/>
<path d="M13892 2850 l0 -121 87 -72 c47 -40 88 -74 91 -77 12 -13 157 -130
161 -130 9 0 2 241 -7 249 -5 4 -58 50 -119 102 -147 126 -166 142 -181 157
-27 26 -31 9 -32 -108z"/>
<path d="M539 2485 c-1 -340 1 -728 4 -731 1 -1 25 17 52 40 28 24 111 95 185
159 l135 116 0 280 c1 188 -3 281 -10 282 -5 0 -90 1 -188 2 l-177 2 -1 -150z"/>
<path d="M10903 2630 c-18 -5 -18 -54 -18 -1310 l0 -1305 193 -1 c137 -1 192
2 193 10 0 6 1 278 2 604 1 387 5 592 12 592 6 -1 21 -10 35 -22 28 -24 209
-187 226 -203 6 -5 44 -39 84 -75 40 -36 80 -72 89 -80 9 -9 57 -52 106 -95
50 -44 92 -82 95 -85 4 -4 119 -107 325 -292 17 -14 39 -35 51 -45 11 -10 58
-52 104 -93 46 -41 88 -79 95 -85 6 -5 30 -28 53 -49 l41 -39 66 139 c37 76
74 157 83 178 l15 39 -39 35 c-21 20 -79 72 -129 116 -49 45 -99 90 -110 101
-12 11 -55 49 -96 85 -41 36 -81 72 -89 81 -8 9 -55 51 -105 95 -49 43 -94 84
-100 90 -5 5 -50 46 -100 90 -49 43 -92 82 -95 85 -3 3 -57 52 -120 109 -63
57 -153 138 -199 179 -46 42 -89 81 -95 86 -6 6 -54 49 -107 97 l-96 87 -1
428 c0 235 -1 435 -1 443 -1 13 -27 15 -175 15 -96 0 -183 -2 -193 -5z"/>
<path d="M14409 2629 c-6 -3 -8 -72 -7 -159 l3 -154 215 0 215 0 0 157 c0 86
-2 157 -5 158 -23 4 -414 3 -421 -2z"/>
<path d="M15640 2632 c-5 -2 63 -75 150 -162 l160 -159 503 1 504 1 -1 153
c-1 84 -5 156 -9 160 -7 7 -1285 13 -1307 6z"/>
<path d="M19561 2628 c-10 -3 -55 -59 -101 -125 -46 -65 -88 -122 -92 -128 -5
-5 -26 -35 -48 -65 -21 -30 -52 -73 -68 -95 -41 -55 -1489 -2061 -1521 -2106
-14 -20 -36 -50 -48 -66 l-22 -29 207 0 207 1 340 461 c187 254 390 530 451
612 l110 151 288 -375 288 -374 199 0 198 0 -162 228 c-89 125 -164 229 -167
232 -3 3 -95 131 -205 285 -110 153 -205 287 -212 296 -10 14 5 41 98 175 61
88 117 168 125 179 21 29 287 409 342 488 26 37 73 104 105 150 32 45 62 89
67 97 7 13 -16 15 -177 15 -101 0 -192 -3 -202 -7z"/>
<path d="M8850 2608 c-36 -4 -85 -15 -110 -24 l-45 -18 75 -18 c275 -67 506
-284 637 -598 13 -30 23 -60 23 -67 0 -34 25 -39 209 -38 99 0 182 3 182 8 3
22 -16 111 -42 190 -99 302 -302 503 -560 552 -86 17 -280 24 -369 13z"/>
<path d="M15470 1513 l0 -1027 54 -51 c30 -27 109 -102 176 -165 68 -63 129
-119 136 -123 12 -7 14 153 14 1035 l-1 1043 -87 72 c-48 40 -104 87 -124 105
-97 85 -142 124 -154 131 -12 7 -14 -158 -14 -1020z"/>
<path d="M828 1784 c-87 -86 -158 -158 -158 -160 0 -2 270 -4 600 -4 l600 0 0
160 0 160 -442 0 -443 0 -157 -156z"/>
<path d="M9616 1293 c-4 -4 194 -201 253 -252 22 -19 37 -21 154 -21 l131 0
-30 31 c-16 17 -75 79 -131 138 l-101 106 -136 1 c-74 1 -137 -1 -140 -3z"/>
<path d="M549 1019 c-9 -5 -15 -981 -6 -996 4 -6 341 -10 367 -4 3 0 6 225 5
498 l0 498 -179 5 c-98 3 -182 2 -187 -1z"/>
<path d="M18875 870 l-97 -130 223 -300 c123 -165 226 -300 229 -300 5 0 73
100 148 218 l34 52 -217 295 c-119 162 -218 295 -220 295 -1 0 -47 -58 -100
-130z"/>
<path d="M11419 938 c-1 -1 -2 -188 -3 -414 l-1 -412 24 19 c19 15 135 117
175 154 6 6 46 41 89 79 l77 68 0 102 -1 101 -97 82 c-53 46 -117 101 -142
123 -59 54 -120 103 -121 98z"/>
<path d="M9884 855 c-15 -91 -77 -203 -192 -349 -59 -76 -311 -331 -427 -433
l-70 -62 50 5 c115 10 218 40 323 93 218 110 482 381 644 661 47 81 68 120 65
121 -1 1 -88 2 -194 3 l-192 1 -7 -40z"/>
<path d="M4077 659 c-20 -23 -64 -70 -97 -106 -59 -62 -61 -66 -48 -91 34 -69
174 -312 179 -312 12 0 190 262 186 275 -3 7 -37 61 -76 120 -39 59 -71 111
-71 115 0 4 -8 14 -18 23 -17 16 -20 14 -55 -24z"/>
<path d="M12827 211 c-37 -76 -67 -141 -67 -145 0 -3 106 -6 235 -6 l235 0 61
121 c33 67 65 132 70 145 l9 24 -239 0 -238 0 -66 -139z"/>
<path d="M2162 322 c-4 -1 63 -73 150 -159 l158 -157 140 -1 c77 -1 140 0 140
1 0 3 -50 53 -228 228 l-90 89 -131 1 c-72 0 -135 0 -139 -2z"/>
<path d="M3398 319 c-5 -3 33 -75 84 -160 l94 -154 199 3 c110 2 200 4 202 5
1 1 -47 72 -107 156 l-109 154 -177 1 c-97 1 -180 -2 -186 -5z"/>
<path d="M15161 297 c20 -17 85 -77 144 -132 59 -55 120 -111 136 -125 27 -25
34 -26 159 -27 71 -1 130 0 130 3 0 3 -71 74 -157 159 l-158 155 -145 0 -145
0 36 -33z"/>
<path d="M19555 315 c-7 -5 -38 -50 -70 -100 -32 -50 -73 -113 -91 -141 -19
-28 -34 -53 -34 -56 0 -3 83 -5 184 -4 l185 1 102 140 c56 77 102 146 103 154
1 11 -32 14 -183 15 -109 1 -189 -3 -196 -9z"/>
</g>
</svg>
